<svg xmlns="http://www.w3.org/2000/svg" width="19.143" height="19.143" viewBox="0 0 19.143 19.143"><path d="M9.571-9H5.286A1.429,1.429,0,0,0,3.857-7.571,1.429,1.429,0,0,0,5.286-6.143h.857L2.857-2.856a1.341,1.341,0,0,0-.429,1A1.417,1.417,0,0,0,3.857-.429a1.316,1.316,0,0,0,1-.429L8.143-4.143v.857A1.429,1.429,0,0,0,9.571-1.857,1.429,1.429,0,0,0,11-3.286V-7.571A1.429,1.429,0,0,0,9.571-9ZM20.143-19.571a1.316,1.316,0,0,0-1,.429l-3.286,3.286v-.857a1.429,1.429,0,0,0-1.429-1.429A1.429,1.429,0,0,0,13-16.714v4.286A1.429,1.429,0,0,0,14.429-11h4.286a1.429,1.429,0,0,0,1.429-1.429,1.429,1.429,0,0,0-1.429-1.429h-.857l3.286-3.286a1.341,1.341,0,0,0,.429-1A1.417,1.417,0,0,0,20.143-19.571Z" transform="translate(-2.429 19.571)" fill="#fff"/></svg>