<svg xmlns="http://www.w3.org/2000/svg" width="20" height="20" viewBox="0 0 20 20"><path d="M20.571,2H16.286a1.429,1.429,0,1,0,0,2.857h.857L13.857,8.144a1.341,1.341,0,0,0-.429,1,1.417,1.417,0,0,0,1.429,1.429,1.316,1.316,0,0,0,1-.429l3.286-3.286v.857a1.429,1.429,0,0,0,2.857,0V3.429A1.429,1.429,0,0,0,20.571,2ZM9.143,13.429a1.316,1.316,0,0,0-1,.429L4.857,17.143v-.857a1.429,1.429,0,1,0-2.857,0v4.286A1.429,1.429,0,0,0,3.429,22H7.714a1.429,1.429,0,0,0,0-2.857H6.857l3.286-3.286a1.341,1.341,0,0,0,.429-1A1.417,1.417,0,0,0,9.143,13.429Z" transform="translate(-2 -2)" fill="#fff"/></svg>