<svg xmlns="http://www.w3.org/2000/svg" width="22.5" height="20" viewBox="0 0 22.5 20"><g transform="translate(-644.75 -29)"><path d="M8.336,2.5a2,2,0,0,1,3.328,0l6.263,9.394A2,2,0,0,1,16.263,15H3.737a2,2,0,0,1-1.664-3.109Z" transform="translate(659.75 29) rotate(90)" fill="#fff"/><g transform="translate(667.25 29) rotate(90)" fill="#fff"><path d="M 16.26297187805176 14.50000286102295 L 3.737030982971191 14.50000286102295 C 3.174401044845581 14.50000286102295 2.680001020431519 14.20385265350342 2.414520978927612 13.70779228210449 C 2.149040937423706 13.21173286437988 2.176861047744751 12.63609218597412 2.488960981369019 12.16795253753662 L 8.751931190490723 2.773502588272095 C 9.034920692443848 2.349012613296509 9.48982048034668 2.105552673339844 10.00000095367432 2.105552673339844 C 10.51017093658447 2.105552673339844 10.96508121490479 2.349012613296509 11.24808120727539 2.773502588272095 L 17.51104164123535 12.16795253753662 C 17.82314109802246 12.63609218597412 17.85096168518066 13.21173286437988 17.58548164367676 13.70779228210449 C 17.32000160217285 14.20385265350342 16.82560157775879 14.50000286102295 16.26297187805176 14.50000286102295 Z" stroke="none"/><path d="M 10.00000095367432 2.605552673339844 C 9.659880638122559 2.605552673339844 9.356611251831055 2.767852783203125 9.167950630187988 3.05085277557373 L 2.90498161315918 12.44530296325684 C 2.605081558227539 12.8951530456543 2.770370483398438 13.31306266784668 2.85536003112793 13.47186279296875 C 2.940340042114258 13.63066291809082 3.196380615234375 14.00000286102295 3.737030029296875 14.00000286102295 L 16.26296043395996 14.00000286102295 C 16.80362129211426 14.00000286102295 17.05966186523438 13.63065242767334 17.1446418762207 13.47186279296875 C 17.2296314239502 13.31306266784668 17.39492034912109 12.8951530456543 17.09502029418945 12.44530296325684 L 10.83205127716064 3.05085277557373 C 10.64339065551758 2.767862319946289 10.34011077880859 2.605552673339844 10.00000095367432 2.605552673339844 M 9.999997138977051 1.605549812316895 C 10.63413619995117 1.605549812316895 11.26827621459961 1.902417182922363 11.66410064697266 2.496152877807617 L 17.92707061767578 11.89060211181641 C 18.81314086914062 13.21971321105957 17.86036109924316 15.00000286102295 16.26296043395996 15.00000286102295 L 3.737030029296875 15.00000286102295 C 2.139640808105469 15.00000286102295 1.186861038208008 13.21971321105957 2.072931289672852 11.89060211181641 L 8.335901260375977 2.496152877807617 C 8.731720924377441 1.902417182922363 9.36585807800293 1.605549812316895 9.999997138977051 1.605549812316895 Z" stroke="none" fill="#111"/></g></g></svg>