<svg xmlns="http://www.w3.org/2000/svg" width="18.593" height="15" viewBox="0 0 18.593 15"><g transform="translate(-57 -397)"><g transform="translate(53 392.964)"><path d="M15.282,4.942V18.1a.928.928,0,0,1-1.438.78l-5.425-3.6H5.88A1.88,1.88,0,0,1,4,13.4V9.643a1.88,1.88,0,0,1,1.88-1.88H8.419l5.406-3.6a.992.992,0,0,1,1.457.78Z" fill="#fff"/></g><path d="M22.829,12.78a6.559,6.559,0,0,1,0,5.441.923.923,0,1,1-1.652-.826,4.707,4.707,0,0,0,0-3.79.923.923,0,1,1,1.652-.826ZM25.4,20.99a.923.923,0,0,1-1.652-.826,11.406,11.406,0,0,0,0-9.328A.923.923,0,0,1,25.4,10.01,13.232,13.232,0,0,1,25.4,20.99Z" transform="translate(49 389)" fill="#fff"/></g></svg>